<?xml version="1.0" encoding="UTF-8"?>
<!DOCTYPE svg PUBLIC "-//W3C//DTD SVG 1.1//EN" "http://www.w3.org/Graphics/SVG/1.1/DTD/svg11.dtd">
<!-- Creator: CorelDRAW 2017 -->
<svg xmlns="http://www.w3.org/2000/svg" xml:space="preserve" width="179mm" height="179mm" version="1.1" style="shape-rendering:geometricPrecision; text-rendering:geometricPrecision; image-rendering:optimizeQuality; fill-rule:evenodd; clip-rule:evenodd"
viewBox="0 0 17900 17900"
 xmlns:xlink="http://www.w3.org/1999/xlink">
 <defs>
  <style type="text/css">
   <![CDATA[
    .str0 {stroke:#FEFEFE;stroke-width:7.62}
    .fil0 {fill:#FEFEFE}
   ]]>
  </style>
 </defs>
 <g id="Capa_x0020_1">
  <metadata id="CorelCorpID_0Corel-Layer"/>
  <g id="_2981180728736">
   <g id="_011---Laser-Cutting">
    <path id="Shape" class="fil0 str0" d="M11970 11467c0,-159 -129,-289 -289,-289 -159,0 -289,129 -289,289l0 3175c0,159 129,289 289,289 159,0 289,-129 289,-289l0 -3175z"/>
    <path id="Shape_0" class="fil0 str0" d="M7641 16373l2597 0c159,0 289,-129 289,-289 0,-159 -129,-289 -289,-289l-2597 0c-159,0 -289,129 -289,289 0,159 129,289 289,289l0 0z"/>
    <path id="Shape_1" class="fil0 str0" d="M12931 15652c110,0 -40,69 2392,-1336 90,-52 145,-147 145,-251 0,-103 -55,-199 -144,-251 -90,-52 -200,-52 -290,-1l-2248 1299c-114,65 -170,199 -137,326 34,127 149,215 281,214l0 0z"/>
    <path id="Shape_2" class="fil0 str0" d="M12258 15086c67,39 146,49 220,29 74,-20 137,-69 175,-136l1299 -2248c80,-139 32,-316 -107,-395 -139,-80 -316,-32 -395,107l-1299 2248c-39,67 -49,146 -29,220 20,74 69,137 136,175l0 0z"/>
    <path id="Shape_3" class="fil0 str0" d="M10960 15124c103,0 199,-54 251,-144 52,-89 52,-200 0,-289l-1299 -2248c-52,-90 -147,-145 -251,-145 -103,0 -199,55 -251,144 -52,90 -52,200 -1,290l1299 2248c52,90 148,145 251,144l0 0z"/>
    <path id="Shape_4" class="fil0 str0" d="M10576 15112l-2248 -1299c-90,-52 -200,-51 -290,1 -89,52 -145,148 -144,251 0,103 56,199 145,251 2424,1400 2283,1336 2392,1336 131,1 247,-87 281,-214 34,-127 -22,-261 -137,-326l0 0z"/>
    <path id="Shape_5" class="fil0 str0" d="M17164 15219l-2309 0c-319,0 -577,258 -577,577l0 1443 -10967 0 0 -1443c0,-319 -258,-577 -577,-577l-2309 0c-159,0 -289,129 -289,289 0,159 129,289 289,289l2309 0 0 1443c0,319 258,577 577,577l10967 0c319,0 577,-258 577,-577l0 -1443 2309 0c159,0 289,-129 289,-289 0,-159 -129,-289 -289,-289z"/>
    <circle id="Oval" class="fil0 str0" cx="11681" cy="16085" r="289"/>
    <circle id="Oval_6" class="fil0 str0" cx="7064" cy="13487" r="289"/>
    <circle id="Oval_7" class="fil0 str0" cx="16299" cy="13487" r="289"/>
    <path id="Shape_8" class="fil0 str0" d="M11970 8581l701 0c102,-1 197,-56 248,-144l1769 -3030 -3296 0c-159,0 -289,-129 -289,-289 0,-159 129,-289 289,-289l3463 0 0 -1443 -6349 0 0 1443 1443 0c159,0 289,129 289,289 0,159 -129,289 -289,289l-1276 0 1769 3030c51,89 146,144 248,144l701 0 0 1732c0,159 129,289 289,289 159,0 289,-129 289,-289l0 -1732z"/>
    <path id="Shape_9" class="fil0 str0" d="M4827 15410c105,119 287,131 407,26 898,-799 900,-1942 0,-2742 -641,-577 -641,-1307 0,-1876 83,-67 122,-173 103,-277 -19,-104 -94,-190 -195,-222 -101,-32 -212,-7 -288,67 -898,799 -900,1942 0,2742 641,577 641,1307 0,1876 -119,105 -131,287 -26,407l0 0z"/>
    <path id="Shape_10" class="fil0 str0" d="M6100 11972c898,-799 900,-1942 0,-2742 -641,-577 -641,-1307 0,-1876 83,-67 122,-173 103,-277 -19,-104 -94,-190 -195,-222 -101,-32 -212,-7 -288,67 -898,799 -900,1942 0,2742 641,577 641,1307 0,1876 -90,79 -121,206 -79,318 42,112 150,187 270,187 70,0 138,-26 190,-72z"/>
    <path id="Shape_11" class="fil0 str0" d="M16299 2810l0 -2020c0,-159 -129,-289 -289,-289l-577 0 0 866c0,159 -129,289 -289,289 -159,0 -289,-129 -289,-289l0 -866 -577 0 0 866c0,159 -129,289 -289,289 -159,0 -289,-129 -289,-289l0 -866 -577 0 0 866c0,159 -129,289 -289,289 -159,0 -289,-129 -289,-289l0 -866 -577 0 0 866c0,159 -129,289 -289,289 -159,0 -289,-129 -289,-289l0 -866 -577 0 0 866c0,159 -129,289 -289,289 -159,0 -289,-129 -289,-289l0 -866 -577 0 0 866c0,159 -129,289 -289,289 -159,0 -289,-129 -289,-289l0 -866 -577 0 0 866c0,159 -129,289 -289,289 -159,0 -289,-129 -289,-289l0 -866 -577 0c-159,0 -289,129 -289,289l0 2020c0,159 129,289 289,289l8658 0c159,0 289,-129 289,-289z"/>
   </g>
  </g>
 </g>
</svg>
