<?xml version="1.0" encoding="UTF-8"?>
<!DOCTYPE svg PUBLIC "-//W3C//DTD SVG 1.1//EN" "http://www.w3.org/Graphics/SVG/1.1/DTD/svg11.dtd">
<!-- Creator: CorelDRAW 2017 -->
<svg xmlns="http://www.w3.org/2000/svg" xml:space="preserve" width="179mm" height="179mm" version="1.1" style="shape-rendering:geometricPrecision; text-rendering:geometricPrecision; image-rendering:optimizeQuality; fill-rule:evenodd; clip-rule:evenodd"
viewBox="0 0 17900 17900"
 xmlns:xlink="http://www.w3.org/1999/xlink">
 <defs>
  <style type="text/css">
   <![CDATA[
    .str0 {stroke:#FEFEFE;stroke-width:7.62}
    .fil0 {fill:#FEFEFE}
   ]]>
  </style>
 </defs>
 <g id="Capa_x0020_1">
  <metadata id="CorelCorpID_0Corel-Layer"/>
  <g id="_2981030013408">
   <g>
    <g>
     <g>
      <path class="fil0 str0" d="M16985 4802l-2460 0 0 -1093 2460 0c151,0 273,-122 273,-273 0,-151 -122,-273 -273,-273l-2460 0 0 -1367c0,-151 -122,-273 -273,-273l-4100 0 0 -1093 -3280 0 0 1093 -3553 0c-151,0 -273,122 -273,273l0 4260 -1853 -1853c-109,-105 -282,-102 -386,7 -102,106 -102,274 0,380l2239 2239 0 2507 -1853 -1853c-109,-105 -282,-102 -386,7 -102,106 -102,274 0,380l2239 2239 0 6447c0,151 122,273 273,273l13666 0c151,0 273,-122 273,-273l0 -11480c0,-151 -122,-273 -273,-273zm-9566 -3827l2187 0 0 547 -2187 0 0 -547zm-1640 15306l-2187 0 0 -14213 2187 0 0 14213zm8200 0l-7653 0 0 -2733 7653 0 0 2733zm0 -3280l-7653 0 0 -2733 7653 0 0 2733zm0 -3280l-7653 0 0 -2733 7653 0 0 2733zm0 -3280l-7653 0 0 -2187 7653 0 0 2187zm0 -2733l-7653 0 0 -547 7653 0 0 547zm0 -1093l-7653 0 0 -547 7653 0 0 547zm2733 13666l-2187 0 0 -10933 2187 0 0 10933z"/>
      <path class="fil0 str0" d="M9605 4529l-2733 0 0 1640 2733 0 0 -1640zm-547 1093l-1640 0 0 -547 1640 0 0 547z"/>
      <rect class="fil0 str0" x="10152" y="4529" width="547" height="547"/>
      <rect class="fil0 str0" x="10152" y="5349" width="547" height="547"/>
      <rect class="fil0 str0" x="10972" y="4529" width="547" height="547"/>
      <rect class="fil0 str0" x="10972" y="5349" width="547" height="547"/>
      <rect class="fil0 str0" x="11792" y="4529" width="547" height="547"/>
      <rect class="fil0 str0" x="11792" y="5349" width="547" height="547"/>
      <rect class="fil0 str0" x="12612" y="4529" width="547" height="547"/>
      <rect class="fil0 str0" x="12612" y="5349" width="547" height="547"/>
      <path class="fil0 str0" d="M9058 7809l2187 0c151,0 273,-122 273,-273 0,-151 -122,-273 -273,-273l-2187 0c-151,0 -273,122 -273,273 0,151 122,273 273,273z"/>
      <path class="fil0 str0" d="M9058 11089l2187 0c151,0 273,-122 273,-273 0,-151 -122,-273 -273,-273l-2187 0c-151,0 -273,122 -273,273 0,151 122,273 273,273z"/>
      <path class="fil0 str0" d="M9058 14369l2187 0c151,0 273,-122 273,-273 0,-151 -122,-273 -273,-273l-2187 0c-151,0 -273,122 -273,273 0,151 122,273 273,273z"/>
     </g>
    </g>
   </g>
   <g>
   </g>
   <g>
   </g>
   <g>
   </g>
   <g>
   </g>
   <g>
   </g>
   <g>
   </g>
   <g>
   </g>
   <g>
   </g>
   <g>
   </g>
   <g>
   </g>
   <g>
   </g>
   <g>
   </g>
   <g>
   </g>
   <g>
   </g>
   <g>
   </g>
  </g>
 </g>
</svg>
