<?xml version="1.0" encoding="UTF-8"?>
<!DOCTYPE svg PUBLIC "-//W3C//DTD SVG 1.1//EN" "http://www.w3.org/Graphics/SVG/1.1/DTD/svg11.dtd">
<!-- Creator: CorelDRAW 2017 -->
<svg xmlns="http://www.w3.org/2000/svg" xml:space="preserve" width="179mm" height="179mm" version="1.1" style="shape-rendering:geometricPrecision; text-rendering:geometricPrecision; image-rendering:optimizeQuality; fill-rule:evenodd; clip-rule:evenodd"
viewBox="0 0 17900 17900"
 xmlns:xlink="http://www.w3.org/1999/xlink"
 enable-background="new 0 0 512 512">
 <defs>
  <style type="text/css">
   <![CDATA[
    .str0 {stroke:#FEFEFE;stroke-width:7.62}
    .fil0 {fill:#FEFEFE}
   ]]>
  </style>
 </defs>
 <g id="Capa_x0020_1">
  <metadata id="CorelCorpID_0Corel-Layer"/>
  <g id="_2980781767392">
   <g>
    <path class="fil0 str0" d="M16561 17857l-2019 0c-278,0 -505,-293 -505,-652l0 -326c0,-539 340,-978 757,-978l757 0 0 -7087 -1608 0 0 5674c0,420 -264,761 -589,761l-8800 0c-325,0 -589,-341 -589,-761l0 -5674 -1608 0 0 7087 757 0c418,0 757,439 757,978l0 326c0,360 -226,652 -505,652l-2019 0c-278,0 -505,-293 -505,-652l0 -326c0,-539 340,-978 757,-978l252 0 0 -7087 -757 0c-418,0 -757,-439 -757,-978l0 -6043c0,-899 566,-1630 1262,-1630l11964 0c139,0 252,146 252,326 0,180 -113,326 -252,326l-9977 0 0 652 10735 0 0 -978c0,-180 113,-326 252,-326l1734 0c696,0 1262,731 1262,1630l0 6043c0,539 -340,978 -757,978l-757 0 0 7087 252 0c418,0 757,439 757,978l0 326c0,360 -226,652 -505,652l0 0zm-1767 -1304c-139,0 -252,146 -252,326l0 326 2019 0 0 -326c0,-180 -113,-326 -252,-326l-1515 0zm-13193 0c-139,0 -252,146 -252,326l0 326 2019 0 0 -326c0,-180 -113,-326 -252,-326l-1515 0zm2870 -10674l0 8609c0,60 38,109 84,109l8800 0c46,0 84,-49 84,-109l0 -8609 -989 0c-104,1591 -972,1983 -1617,2274 -569,257 -866,417 -866,983 0,406 137,656 296,946 190,346 404,738 389,1393 -24,1019 -770,1817 -1698,1817 -884,0 -1644,-810 -1694,-1806 -37,-739 215,-1209 417,-1587 147,-275 264,-492 264,-764 0,-617 -276,-745 -849,-955 -473,-173 -1062,-388 -1378,-1154 -65,-159 -19,-356 104,-441 123,-85 276,-24 341,135 214,521 629,672 1069,833 542,198 1217,444 1217,1582 0,475 -180,810 -353,1135 -182,340 -354,661 -328,1173 33,660 567,1196 1190,1196 642,0 1178,-532 1193,-1185 10,-436 -125,-683 -296,-996 -182,-333 -389,-710 -389,-1323 0,-1055 640,-1344 1204,-1599 624,-281 1215,-548 1282,-1749 -98,-75 -175,-193 -216,-340l-383 -1373 -184 0c-278,0 -505,-293 -505,-652l-7074 0 0 3000 378 0 0 -543c0,-360 226,-652 505,-652l6526 0c139,0 252,146 252,326 0,180 -113,326 -252,326l-6526 0zm10356 2283l1987 0c139,0 252,-146 252,-326l0 -6043c0,-539 -340,-978 -757,-978l-1482 0 0 7348zm-883 0l378 0 0 -1087 -378 0 0 1087zm-10356 0l378 0 0 -1087 -378 0 0 1087zm-1987 -7348c-418,0 -757,439 -757,978l0 6043c0,180 113,326 252,326l1987 0 0 -7348 -1482 0zm12343 5609l378 0 0 -3000 -505 0c0,360 -226,652 -505,652l-246 0 -321 1152 694 0c278,0 505,293 505,652l0 543 0 0zm-2057 -2348l321 1152 322 -1152 -643 0zm-721 -1957l0 1304 2146 0 0 -1304 -2146 0zm2651 652l505 0 0 -652 -505 0 0 652zm-10230 0l7074 0 0 -652 -7074 0 0 652zm12704 2065c-148,0 -269,-156 -269,-348 0,-192 121,-348 269,-348 148,0 269,156 269,348 0,192 -121,348 -269,348zm0 -1304c-148,0 -269,-156 -269,-348 0,-192 121,-348 269,-348 148,0 269,156 269,348 0,192 -121,348 -269,348zm0 -1304c-148,0 -269,-156 -269,-348 0,-192 121,-348 269,-348 148,0 269,156 269,348 0,192 -121,348 -269,348z"/>
   </g>
  </g>
 </g>
</svg>
