<?xml version="1.0" encoding="UTF-8"?>
<!DOCTYPE svg PUBLIC "-//W3C//DTD SVG 1.1//EN" "http://www.w3.org/Graphics/SVG/1.1/DTD/svg11.dtd">
<!-- Creator: CorelDRAW 2017 -->
<svg xmlns="http://www.w3.org/2000/svg" xml:space="preserve" width="169mm" height="65mm" version="1.1" style="shape-rendering:geometricPrecision; text-rendering:geometricPrecision; image-rendering:optimizeQuality; fill-rule:evenodd; clip-rule:evenodd"
viewBox="0 0 16900 6500"
 xmlns:xlink="http://www.w3.org/1999/xlink">
 <defs>
  <style type="text/css">
   <![CDATA[
    .fil1 {fill:#ED3238}
    .fil0 {fill:#373435;fill-rule:nonzero}
   ]]>
  </style>
 </defs>
 <g id="Capa_x0020_1">
  <metadata id="CorelCorpID_0Corel-Layer"/>
  <g id="_2981402804496">
   <polygon class="fil0" points="26,2167 938,2167 938,49 26,49 "/>
   <path class="fil0" d="M3127 2167l-1183 -1077 1147 -1042 -1041 0 -930 841 -106 94c-35,43 -53,80 -53,112 0,43 57,116 171,218l947 853 1047 0z"/>
   <path class="fil0" d="M4598 502l559 0c200,0 300,49 300,147l0 930c0,86 -100,129 -300,129l-559 0c-200,0 -300,-49 -300,-147l-6 -912c0,-98 102,-147 306,-147zm-1189 1318c47,126 141,215 282,268 141,53 357,79 647,79l1071 0c635,0 953,-153 953,-459l0 -1206c0,-302 -316,-453 -947,-453l-1077 0c-526,0 -838,114 -936,341 -16,39 -24,77 -24,112l6 1212c0,31 8,67 24,106z"/>
   <path class="fil0" d="M8734 502c27,0 47,2 59,6 149,12 224,53 224,124l0 194c0,79 -80,118 -241,118l-371 0 -577 0 0 -441 906 0zm-906 841l1004 824 55 0 78 0 999 0 -1036 -841 141 6c39,0 92,-2 159,-6 169,-12 314,-45 435,-100 173,-78 259,-186 259,-324l0 -424c0,-286 -292,-430 -877,-430l-2130 0 0 2118 912 0 0 -824z"/>
   <path class="fil0" d="M15762 2759c5,0 10,0 15,0 17,1 30,2 38,5 135,11 202,48 202,112l0 175c0,71 -73,106 -218,106l-335 0 0 0 -521 0 0 -399 819 0zm644 1125l-468 -380 128 5c35,0 83,-2 144,-5 152,-11 284,-41 394,-90 156,-71 234,-168 234,-293l0 -383c0,-259 -264,-388 -793,-388l0 0 -1925 0 0 0 0 1915 0 0 824 0 0 0 0 -745 907 745 50 0 0 0 70 0 903 0 0 0 -468 -380z"/>
   <polygon class="fil0" points="11838,1032 10300,1032 10300,1420 11838,1420 "/>
   <polygon class="fil0" points="14568,49 11838,49 11838,502 12744,502 12744,2167 13656,2167 13656,502 14568,502 "/>
   <path class="fil0" d="M2896 3764l0 -1415 -824 0 0 1447c0,153 64,265 192,338 128,73 337,114 628,125 43,4 89,5 138,5l1527 0 5 -415 -1457 0c-138,0 -207,-28 -207,-85z"/>
   <path class="fil0" d="M6002 3461l287 -622 388 622 -675 0zm340 -1133c-326,0 -543,85 -649,255l-1058 1681 862 0 261 -415 1165 0 261 415 862 0 -1058 -1681c-106,-170 -321,-255 -644,-255z"/>
   <path class="fil0" d="M8257 2631c-14,32 -21,64 -21,96l0 404c0,74 43,144 128,207 152,114 367,170 644,170l686 0c117,7 176,37 176,90l0 138c0,53 -64,90 -191,112l-1436 0 0 415 1628 0c199,0 369,-23 511,-69 209,-71 314,-183 314,-335l0 -388c0,-142 -101,-245 -303,-309 -135,-46 -291,-69 -468,-69l-596 0 -53 0c-121,-7 -190,-35 -207,-85 -4,-3 -5,-12 -5,-27l0 -128c0,-57 60,-87 181,-90l1452 -5 0 -410 -1676 0c-411,0 -665,94 -761,282z"/>
   <path class="fil0" d="M11172 2679c-11,32 -16,60 -16,85l0 1101c0,266 305,399 915,399l1585 0 0 -415 -1463 0c-142,-7 -213,-50 -213,-128l0 -213 1675 0 0 -415 -1675 0 0 -213c0,-57 46,-94 138,-112 25,-4 43,-7 53,-11l1484 0 0 -410 -1702 0c-450,0 -711,110 -782,330z"/>
   <path class="fil0" d="M3054 6016l98 0c87,0 133,-38 133,-121 0,-60 -24,-123 -133,-123l-98 0 0 244zm0 147l0 212c0,40 -37,76 -81,76 -43,0 -81,-35 -81,-76l0 -666c0,-45 42,-83 90,-83l170 0c217,0 295,129 295,270 0,171 -116,267 -295,267l-98 0z"/>
   <path class="fil0" d="M3835 5773l-123 0 0 192 129 0c80,0 123,-34 123,-94 0,-49 -24,-98 -129,-98zm131 320l158 238c38,58 -19,119 -71,119 -29,0 -53,-13 -68,-36l-194 -304 -79 0 0 265c0,40 -38,76 -82,76 -43,0 -80,-35 -80,-76l0 -666c0,-45 40,-83 88,-83l201 0c217,0 287,124 287,245 0,114 -61,190 -161,222z"/>
   <path class="fil0" d="M4397 5918l0 229c0,92 44,157 139,157 95,0 139,-65 139,-157l0 -229c0,-94 -37,-156 -139,-156 -102,0 -139,62 -139,156zm-162 229l0 -229c0,-164 84,-303 301,-303 216,0 301,139 301,303l0 229c0,169 -101,304 -301,304 -200,0 -301,-135 -301,-304z"/>
   <path class="fil0" d="M5371 5929c0,-88 -45,-157 -170,-157l-79 0 0 522 79 0c127,0 170,-75 170,-166l0 -199zm-190 512l-131 0c-49,0 -90,-38 -90,-83l0 -650c0,-45 42,-83 90,-83l131 0c261,0 351,143 351,304l0 199c0,163 -89,313 -351,313z"/>
   <path class="fil0" d="M5928 6451c-186,0 -290,-123 -290,-288l0 -472c0,-44 36,-76 82,-76 43,0 80,35 80,76l0 472c0,83 40,141 128,141 87,0 127,-59 127,-141l0 -472c0,-40 35,-76 80,-76 47,0 83,36 83,76l0 472c0,166 -107,288 -290,288z"/>
   <path class="fil0" d="M6484 6147c0,99 35,162 139,162 37,0 67,-9 96,-28l12 -7c15,-9 23,-17 50,-17 44,0 76,32 76,69 0,67 -117,124 -239,124 -202,0 -295,-120 -295,-303l0 -229c0,-183 92,-303 295,-303 123,0 239,57 239,124 0,37 -32,69 -76,69 -27,0 -35,-8 -50,-17l-12 -7c-29,-18 -59,-28 -96,-28 -104,0 -139,62 -139,162l0 229z"/>
   <path class="fil0" d="M7090 6147c0,99 35,162 139,162 37,0 67,-9 96,-28l12 -7c15,-9 23,-17 50,-17 44,0 76,32 76,69 0,67 -117,124 -239,124 -202,0 -295,-120 -295,-303l0 -229c0,-183 92,-303 295,-303 123,0 239,57 239,124 0,37 -32,69 -76,69 -27,0 -35,-8 -50,-17l-12 -7c-29,-18 -59,-28 -96,-28 -104,0 -139,62 -139,162l0 229z"/>
   <path class="fil0" d="M7564 5689c0,-39 36,-74 81,-74 44,0 81,35 81,74l0 688c0,39 -37,74 -81,74 -45,0 -81,-35 -81,-74l0 -688z"/>
   <path class="fil0" d="M8179 5389l9 -9c14,-14 22,-22 47,-22 27,0 57,24 57,57 0,9 -2,21 -10,32l-95 95c-17,15 -27,24 -52,24 -32,0 -59,-23 -59,-57 0,-12 2,-20 9,-29l94 -91zm-165 529l0 229c0,93 44,157 139,157 95,0 139,-65 139,-157l0 -229c0,-94 -37,-156 -139,-156 -102,0 -139,62 -139,156zm-162 229l0 -229c0,-164 84,-303 301,-303 216,0 301,139 301,303l0 229c0,169 -101,304 -301,304 -200,0 -301,-135 -301,-304z"/>
   <path class="fil0" d="M9007 6411l-268 -467 0 432c0,40 -38,75 -82,75 -45,0 -80,-35 -80,-75l0 -682c0,-45 36,-79 84,-79 31,0 62,17 79,43 103,178 162,283 268,469l0 -437c0,-40 38,-75 82,-75 45,0 80,35 80,75l0 682c0,43 -35,79 -86,79 -30,0 -62,-16 -77,-40z"/>
   <path class="fil0" d="M9793 6147c0,99 35,162 139,162 40,0 69,-10 96,-24l0 -180 -60 0c-38,0 -73,-32 -73,-73 0,-40 35,-73 73,-73l126 0c53,0 95,25 95,81l0 255c0,109 -143,155 -262,155 -202,0 -295,-120 -295,-303l0 -229c0,-183 92,-303 295,-303 123,0 239,57 239,124 0,37 -32,69 -76,69 -27,0 -35,-8 -50,-17l-12 -7c-29,-17 -59,-28 -96,-28 -104,0 -139,62 -139,162l0 229z"/>
   <path class="fil0" d="M10595 5773l-123 0 0 192 129 0c80,0 123,-34 123,-94 0,-49 -24,-98 -129,-98zm131 320l158 238c38,58 -18,119 -71,119 -29,0 -53,-13 -68,-36l-194 -304 -79 0 0 265c0,40 -38,76 -82,76 -43,0 -80,-35 -80,-76l0 -666c0,-45 40,-83 88,-83l201 0c217,0 287,124 287,245 0,114 -61,190 -161,222z"/>
   <path class="fil0" d="M11351 5389l9 -9c14,-14 22,-22 47,-22 27,0 57,24 57,57 0,9 -2,21 -10,32l-95 95c-17,15 -27,24 -52,24 -32,0 -59,-23 -59,-57 0,-12 2,-20 9,-29l94 -91zm-23 562c-10,-34 -16,-77 -21,-113 -5,36 -10,80 -21,113l-61 198 162 0 -59 -198zm-184 446c-12,34 -49,54 -76,54 -45,0 -83,-30 -83,-74 0,-6 1,-20 3,-25l225 -658c15,-45 38,-79 94,-79 55,0 79,32 95,79l225 658c2,6 3,20 3,25 0,44 -36,74 -83,74 -30,0 -67,-22 -79,-54l-40 -117 -246 0 -38 117z"/>
   <path class="fil0" d="M11888 6377c0,39 -37,74 -81,74 -45,0 -81,-35 -81,-74l0 -670c0,-40 38,-82 89,-82l313 0c44,0 81,35 81,75 0,42 -37,72 -81,72l-240 0 0 187 218 0c40,0 80,31 80,73 0,42 -35,74 -80,74l-218 0 0 272z"/>
   <path class="fil0" d="M12321 5689c0,-39 36,-74 81,-74 44,0 81,35 81,74l0 688c0,39 -37,74 -81,74 -45,0 -81,-35 -81,-74l0 -688z"/>
   <path class="fil0" d="M12759 6147c0,99 35,162 139,162 37,0 67,-9 96,-28l12 -7c15,-9 23,-17 50,-17 44,0 76,32 76,69 0,67 -117,124 -239,124 -202,0 -295,-120 -295,-303l0 -229c0,-183 92,-303 295,-303 123,0 239,57 239,124 0,37 -32,69 -76,69 -27,0 -35,-8 -50,-17l-12 -7c-29,-18 -59,-28 -96,-28 -104,0 -139,62 -139,162l0 229z"/>
   <path class="fil0" d="M13548 5951c-10,-34 -16,-77 -21,-113 -5,36 -10,80 -21,113l-61 198 162 0 -59 -198zm-184 446c-12,34 -49,54 -76,54 -45,0 -83,-30 -83,-74 0,-6 1,-20 3,-25l225 -658c15,-45 38,-79 94,-79 56,0 79,32 95,79l225 658c2,6 3,20 3,25 0,44 -36,74 -83,74 -30,0 -67,-22 -79,-54l-40 -117 -246 0 -38 117z"/>
   <path class="fil1" d="M15466 5529l4 -2c3,1 6,1 8,2l-8 -2 359 -133 -367 -99 241 -313 -367 122 42 -392 -251 305 -170 -347 -55 391 -329 -191 159 353 -2 0 54 122c-1843,-365 -4088,-580 -6510,-580 -2747,0 -5265,276 -7229,735 1964,-286 4483,-458 7229,-458 347,0 691,3 1031,8 6,0 3460,128 5419,367l-53 35 -315 234 383 -12 -147 368 322 -223 67 385 159 -363 260 280 -54 -388 371 86 -250 -289z"/>
  </g>
 </g>
</svg>
