<?xml version="1.0" encoding="UTF-8"?>
<!DOCTYPE svg PUBLIC "-//W3C//DTD SVG 1.1//EN" "http://www.w3.org/Graphics/SVG/1.1/DTD/svg11.dtd">
<!-- Creator: CorelDRAW 2017 -->
<svg xmlns="http://www.w3.org/2000/svg" xml:space="preserve" width="343mm" height="60mm" version="1.1" style="shape-rendering:geometricPrecision; text-rendering:geometricPrecision; image-rendering:optimizeQuality; fill-rule:evenodd; clip-rule:evenodd"
viewBox="0 0 34300 6000"
 xmlns:xlink="http://www.w3.org/1999/xlink">
 <defs>
  <style type="text/css">
   <![CDATA[
    .str0 {stroke:#ED3237;stroke-width:7.62}
    .fil1 {fill:#ED3237}
    .fil0 {fill:#373435;fill-rule:nonzero}
   ]]>
  </style>
 </defs>
 <g id="Capa_x0020_1">
  <metadata id="CorelCorpID_0Corel-Layer"/>
  <g id="_2980794555520">
   <path class="fil0" d="M7862 5017l173 0c152,0 233,-67 233,-213 0,-106 -43,-215 -233,-215l-173 0 0 428zm0 258l0 372c0,71 -65,134 -142,134 -75,0 -142,-61 -142,-134l0 -1169c0,-79 73,-146 158,-146l299 0c382,0 518,227 518,475 0,301 -203,469 -518,469l-173 0z"/>
   <path class="fil0" d="M9234 4589l-215 0 0 337 227 0c140,0 215,-59 215,-164 0,-85 -43,-173 -227,-173zm229 562l278 418c67,102 -33,209 -124,209 -51,0 -93,-22 -120,-63l-341 -534 -138 0 0 465c0,71 -67,134 -144,134 -75,0 -140,-61 -140,-134l0 -1170c0,-79 71,-146 154,-146l353 0c382,0 504,217 504,431 0,201 -108,333 -282,390z"/>
   <path class="fil0" d="M10221 4845l0 402c0,162 77,276 244,276 167,0 244,-114 244,-276l0 -402c0,-164 -65,-274 -244,-274 -179,0 -244,110 -244,274zm-284 402l0 -402c0,-288 148,-532 528,-532 380,0 528,244 528,532l0 402c0,296 -177,534 -528,534 -351,0 -528,-238 -528,-534z"/>
   <path class="fil0" d="M11933 4863c0,-154 -79,-276 -298,-276l-138 0 0 918 138 0c223,0 298,-132 298,-292l0 -349zm-333 900l-229 0c-85,0 -158,-67 -158,-146l0 -1141c0,-79 73,-146 158,-146l229 0c459,0 617,252 617,534l0 349c0,286 -156,550 -617,550z"/>
   <path class="fil0" d="M12912 5781c-327,0 -510,-215 -510,-506l0 -828c0,-77 63,-134 144,-134 75,0 140,61 140,134l0 828c0,146 71,248 225,248 152,0 223,-104 223,-248l0 -828c0,-71 61,-134 140,-134 83,0 146,63 146,134l0 828c0,292 -189,506 -510,506z"/>
   <path class="fil0" d="M13888 5247c0,175 61,284 244,284 65,0 118,-16 169,-49l20 -12c26,-16 41,-30 87,-30 77,0 134,57 134,122 0,118 -205,217 -420,217 -355,0 -518,-211 -518,-532l0 -402c0,-321 162,-532 518,-532 215,0 420,100 420,217 0,65 -57,122 -134,122 -47,0 -61,-14 -87,-30l-20 -12c-51,-33 -104,-49 -169,-49 -183,0 -244,110 -244,284l0 402z"/>
   <path class="fil0" d="M14952 5247c0,175 61,284 244,284 65,0 118,-16 169,-49l20 -12c26,-16 41,-30 87,-30 77,0 134,57 134,122 0,118 -205,217 -420,217 -355,0 -518,-211 -518,-532l0 -402c0,-321 162,-532 518,-532 215,0 420,100 420,217 0,65 -57,122 -134,122 -47,0 -61,-14 -87,-30l-20 -12c-51,-33 -104,-49 -169,-49 -183,0 -244,110 -244,284l0 402z"/>
   <path class="fil0" d="M15785 4443c0,-69 63,-130 142,-130 77,0 142,61 142,130l0 1208c0,69 -65,130 -142,130 -79,0 -142,-61 -142,-130l0 -1208z"/>
   <path class="fil0" d="M16865 3915l16 -16c24,-24 39,-39 83,-39 47,0 100,43 100,100 0,16 -4,37 -18,57l-167 167c-30,26 -47,43 -91,43 -57,0 -104,-41 -104,-99 0,-20 4,-35 16,-51l164 -160zm-290 930l0 402c0,162 77,276 244,276 167,0 244,-114 244,-276l0 -402c0,-164 -65,-274 -244,-274 -179,0 -244,110 -244,274zm-284 402l0 -402c0,-288 148,-532 528,-532 380,0 528,244 528,532l0 402c0,296 -177,534 -528,534 -351,0 -528,-238 -528,-534z"/>
   <path class="fil0" d="M18321 5710l-471 -820 0 759c0,71 -67,132 -144,132 -79,0 -140,-61 -140,-132l0 -1198c0,-79 63,-138 148,-138 55,0 110,30 138,75 181,313 284,497 471,824l0 -768c0,-71 67,-132 144,-132 79,0 140,61 140,132l0 1198c0,75 -61,138 -150,138 -53,0 -110,-28 -136,-71z"/>
   <path class="fil0" d="M19702 5247c0,175 61,284 244,284 71,0 122,-18 169,-43l0 -317 -106 0c-67,0 -128,-57 -128,-128 0,-71 61,-128 128,-128l221 0c93,0 166,45 166,142l0 449c0,191 -252,272 -461,272 -355,0 -518,-211 -518,-532l0 -402c0,-321 162,-532 518,-532 215,0 420,100 420,217 0,65 -57,122 -134,122 -47,0 -61,-14 -87,-30l-20 -12c-51,-30 -104,-49 -169,-49 -183,0 -244,110 -244,284l0 402z"/>
   <path class="fil0" d="M21111 4589l-215 0 0 337 227 0c140,0 215,-59 215,-164 0,-85 -43,-173 -227,-173zm229 562l278 418c67,102 -33,209 -124,209 -51,0 -93,-22 -120,-63l-341 -534 -138 0 0 465c0,71 -67,134 -144,134 -75,0 -140,-61 -140,-134l0 -1170c0,-79 71,-146 154,-146l353 0c382,0 504,217 504,431 0,201 -108,333 -282,390z"/>
   <path class="fil0" d="M22439 3915l16 -16c24,-24 39,-39 83,-39 47,0 100,43 100,100 0,16 -4,37 -18,57l-166 167c-30,26 -47,43 -91,43 -57,0 -104,-41 -104,-99 0,-20 4,-35 16,-51l164 -160zm-41 987c-18,-59 -28,-136 -37,-199 -8,63 -18,140 -37,199l-108 347 284 0 -104 -347zm-323 784c-20,59 -85,95 -134,95 -79,0 -146,-53 -146,-130 0,-10 2,-35 6,-45l396 -1155c26,-79 67,-138 164,-138 97,0 138,57 167,138l396 1155c4,10 6,34 6,45 0,77 -63,130 -146,130 -53,0 -118,-39 -138,-95l-71 -205 -432 0 -67 205z"/>
   <path class="fil0" d="M23383 5651c0,69 -65,130 -142,130 -79,0 -142,-61 -142,-130l0 -1178c0,-71 67,-144 156,-144l550 0c77,0 142,61 142,132 0,73 -65,126 -142,126l-422 0 0 329 384 0c71,0 140,55 140,128 0,73 -61,130 -140,130l-384 0 0 477z"/>
   <path class="fil0" d="M24143 4443c0,-69 63,-130 142,-130 77,0 142,61 142,130l0 1208c0,69 -65,130 -142,130 -79,0 -142,-61 -142,-130l0 -1208z"/>
   <path class="fil0" d="M26299 4902c-18,-59 -28,-136 -37,-199 -8,63 -18,140 -37,199l-108 347 284 0 -104 -347zm-323 784c-20,59 -85,95 -134,95 -79,0 -146,-53 -146,-130 0,-10 2,-35 6,-45l396 -1155c26,-79 67,-138 164,-138 97,0 138,57 167,138l396 1155c4,10 6,34 6,45 0,77 -63,130 -146,130 -53,0 -118,-39 -138,-95l-71 -205 -432 0 -67 205z"/>
   <path class="fil1 str0" d="M32663 4478l9 -4c6,1 12,2 18,4l-18 -4 792 -294 -810 -219 531 -692 -810 270 92 -866 -554 673 -376 -765 -121 863 -725 -421 350 778 -4 -1 118 269c-4067,-806 -9018,-1280 -14361,-1280 -6059,0 -11616,609 -15948,1621 4332,-631 9889,-1010 15948,-1010 767,0 1525,6 2274,18 21,1 7635,284 11955,809l-117 77 -694 515 844 -26 -325 812 711 -492 148 849 352 -800 574 618 -119 -855 818 190 -552 -638z"/>
   <path class="fil0" d="M32982 535c8,0 15,1 22,1 17,1 31,2 40,5 156,12 234,55 234,129l0 203c0,82 -84,123 -253,123l-388 0 -604 0 0 -462 949 0zm774 1326l-571 -464 148 6c41,0 97,-2 166,-6 177,-12 329,-47 456,-105 181,-82 271,-195 271,-339l0 -444c0,-300 -306,-450 -918,-450l0 0 -2230 0 0 0 0 2218 0 0 955 0 0 -863 1051 863 58 0 81 0 1046 0 0 0 -514 -417z"/>
   <path class="fil0" d="M18079 1699l0 -1639 -955 0 0 1676c0,177 74,307 222,391 148,84 390,132 727,145 49,4 103,6 160,6l1768 0 6 -480 -1688 0c-160,0 -240,-33 -240,-99z"/>
   <path class="fil0" d="M21677 1348l333 -721 450 721 -782 0zm394 -1312c-378,0 -628,99 -752,296l-1226 1947 998 0 302 -480 1349 0 302 480 998 0 -1226 -1947c-123,-197 -372,-296 -745,-296z"/>
   <path class="fil0" d="M24289 387c-16,37 -25,74 -25,111l0 468c0,86 49,166 148,240 177,131 425,197 745,197l795 0c136,8 203,43 203,105l0 160c0,62 -74,105 -222,129l-1663 0 0 480 1885 0c230,0 427,-27 591,-80 242,-82 364,-211 364,-388l0 -450c0,-164 -117,-283 -351,-357 -156,-53 -337,-80 -542,-80l-690 0 -62 0c-140,-8 -220,-41 -240,-99 -4,-4 -6,-14 -6,-31l0 -148c0,-66 70,-101 209,-105l1682 -6 0 -474 -1941 0c-477,0 -770,109 -881,326z"/>
   <path class="fil0" d="M27665 442c-12,37 -18,70 -18,99l0 1275c0,308 353,462 1060,462l1836 0 0 -480 -1694 0c-164,-8 -246,-58 -246,-148l0 -246 1941 0 0 -481 -1941 0 0 -246c0,-66 53,-109 160,-129 29,-4 49,-8 62,-12l1719 0 0 -474 -1971 0c-522,0 -823,127 -906,382z"/>
   <path class="fil0" d="M3258 49l-1096 0 -979 886 -112 99c-37,45 -56,85 -56,118 0,46 60,122 180,229l997 898 1103 0 -1245 -1134 1208 -1096z"/>
   <polygon class="fil0" points="31,2278 991,2278 991,48 31,48 "/>
   <path class="fil0" d="M5748 1659c0,91 -105,136 -316,136l-588 0c-211,0 -316,-52 -316,-155l-6 -960c0,-103 107,-155 322,-155l588 0c211,0 316,52 316,155l0 979zm-43 -1610l-1134 0c-553,0 -882,120 -985,359 -17,41 -25,81 -25,118l6 1276c0,33 8,70 25,112 49,132 149,226 297,282 149,56 376,84 681,84l1127 0c669,0 1003,-161 1003,-483l0 -1270c0,-318 -332,-477 -997,-477z"/>
   <path class="fil0" d="M9198 525c29,0 50,2 62,6 157,12 235,56 235,130l0 204c0,83 -85,124 -254,124l-390 0 -607 0 0 -465 954 0zm353 873c41,0 97,-2 167,-6 177,-12 330,-47 458,-105 182,-83 273,-196 273,-341l0 -446c0,-301 -308,-452 -923,-452l-2242 0 0 2230 960 0 0 -867 1057 867 58 0 82 0 1052 0 -1090 -886 149 6z"/>
   <polygon class="fil0" points="10845,1492 12464,1492 12464,1083 10845,1083 "/>
   <polygon class="fil0" points="12464,525 13418,525 13418,2278 14378,2278 14378,525 15338,525 15338,49 12464,49 "/>
   <path class="fil0" d="M24912 5247c0,175 61,284 244,284 65,0 118,-16 169,-49l20 -12c26,-16 41,-30 87,-30 77,0 134,57 134,122 0,118 -205,217 -420,217 -355,0 -518,-211 -518,-532l0 -402c0,-321 162,-532 518,-532 215,0 420,100 420,217 0,65 -57,122 -134,122 -47,0 -61,-14 -87,-30l-20 -12c-51,-33 -104,-49 -169,-49 -183,0 -244,110 -244,284l0 402z"/>
  </g>
 </g>
</svg>
